<svg width="145" height="30" viewBox="0 0 314 62" fill="none" xmlns="http://www.w3.org/2000/svg" opacity="0.3" >
<rect x="32.3906" y="11.4796" width="5.35404" height="33.636" rx="2.67702" fill="#65758C"/>
<rect x="43.3088" y="16.2279" width="5.22656" height="24.0906" rx="2.61328" fill="#65758C"/>
<rect x="21.5938" y="16.2279" width="5.22656" height="24.0906" rx="2.61328" fill="#65758C"/>
<rect x="64.9025" y="13.7928" width="5.22656" height="28.8633" rx="2.61328" fill="#65758C"/>
<rect y="13.7928" width="5.22656" height="28.8633" rx="2.61328" fill="#65758C"/>
<rect x="54.1057" y="21.098" width="5.22656" height="14.318" rx="2.61328" fill="#65758C"/>
<rect x="10.7969" y="21.098" width="5.22656" height="14.318" rx="2.61328" fill="#65758C"/>
<path d="M104.726 16.365H94.399V45H89.04V16.365H78.69V11.88H104.726V16.365ZM117.164 34.742C115.401 34.8033 113.914 34.949 112.702 35.179C111.491 35.3937 110.51 35.6773 109.758 36.03C109.007 36.3673 108.463 36.7737 108.125 37.249C107.803 37.7243 107.642 38.2457 107.642 38.813C107.642 39.365 107.727 39.8403 107.895 40.239C108.079 40.6223 108.325 40.9443 108.631 41.205C108.953 41.4503 109.321 41.6343 109.735 41.757C110.165 41.8643 110.632 41.918 111.138 41.918C112.426 41.918 113.53 41.6803 114.45 41.205C115.386 40.7143 116.29 40.009 117.164 39.089V34.742ZM104.054 24.806C106.707 22.3373 109.866 21.103 113.53 21.103C114.88 21.103 116.076 21.3253 117.118 21.77C118.176 22.1993 119.058 22.8127 119.763 23.61C120.484 24.4073 121.028 25.358 121.396 26.462C121.78 27.5507 121.971 28.762 121.971 30.096V45H119.763C119.288 45 118.928 44.931 118.682 44.793C118.437 44.6397 118.23 44.3407 118.061 43.896L117.578 41.987C116.98 42.5237 116.39 43.0067 115.807 43.436C115.225 43.85 114.619 44.2027 113.99 44.494C113.377 44.7853 112.71 45 111.989 45.138C111.284 45.2913 110.502 45.368 109.643 45.368C108.693 45.368 107.803 45.2377 106.975 44.977C106.163 44.7163 105.457 44.3253 104.859 43.804C104.261 43.2673 103.786 42.608 103.433 41.826C103.096 41.044 102.927 40.124 102.927 39.066C102.927 38.1613 103.165 37.2797 103.64 36.421C104.131 35.5623 104.928 34.7957 106.032 34.121C107.152 33.431 108.616 32.8637 110.425 32.419C112.25 31.9743 114.496 31.7213 117.164 31.66V30.096C117.164 28.4093 116.804 27.152 116.083 26.324C115.363 25.496 114.305 25.082 112.909 25.082C111.959 25.082 111.161 25.2047 110.517 25.45C109.873 25.68 109.314 25.933 108.838 26.209C108.363 26.485 107.941 26.7457 107.573 26.991C107.205 27.221 106.814 27.336 106.4 27.336C106.063 27.336 105.772 27.2517 105.526 27.083C105.296 26.899 105.105 26.6767 104.951 26.416L104.054 24.806ZM134.181 10.96V45H129.236V10.96H134.181ZM146.61 10.96V30.694H147.668C148.005 30.694 148.281 30.648 148.496 30.556C148.71 30.464 148.933 30.2723 149.163 29.981L155.741 22.46C155.971 22.1533 156.224 21.9233 156.5 21.77C156.776 21.6167 157.128 21.54 157.558 21.54H162.043L154.131 30.464C153.671 31.062 153.165 31.5373 152.613 31.89C152.919 32.1047 153.188 32.35 153.418 32.626C153.648 32.8867 153.87 33.1857 154.085 33.523L162.526 45H158.11C157.711 45 157.366 44.9387 157.075 44.816C156.799 44.678 156.553 44.4327 156.339 44.08L149.554 34.88C149.324 34.5273 149.094 34.305 148.864 34.213C148.634 34.1057 148.289 34.052 147.829 34.052H146.61V45H141.665V10.96H146.61ZM195.414 11.88V45H192.677C192.263 45 191.91 44.931 191.619 44.793C191.328 44.6397 191.052 44.3943 190.791 44.057L172.598 20.689C172.644 21.1337 172.675 21.5783 172.69 22.023C172.721 22.4523 172.736 22.851 172.736 23.219V45H167.998V11.88H170.804C171.034 11.88 171.226 11.8953 171.379 11.926C171.548 11.9413 171.701 11.9797 171.839 12.041C171.977 12.1023 172.107 12.1943 172.23 12.317C172.353 12.4397 172.483 12.593 172.621 12.777L190.837 36.168C190.791 35.6927 190.753 35.225 190.722 34.765C190.707 34.305 190.699 33.8757 190.699 33.477V11.88H195.414ZM213.191 21.172C214.923 21.172 216.487 21.4557 217.883 22.023C219.293 22.5903 220.489 23.3953 221.471 24.438C222.467 25.4807 223.234 26.7457 223.771 28.233C224.307 29.7203 224.576 31.3917 224.576 33.247C224.576 35.1023 224.307 36.7737 223.771 38.261C223.234 39.7483 222.467 41.021 221.471 42.079C220.489 43.1217 219.293 43.9267 217.883 44.494C216.487 45.0613 214.923 45.345 213.191 45.345C211.443 45.345 209.863 45.0613 208.453 44.494C207.057 43.9267 205.861 43.1217 204.865 42.079C203.868 41.021 203.101 39.7483 202.565 38.261C202.028 36.7737 201.76 35.1023 201.76 33.247C201.76 31.3917 202.028 29.7203 202.565 28.233C203.101 26.7457 203.868 25.4807 204.865 24.438C205.861 23.3953 207.057 22.5903 208.453 22.023C209.863 21.4557 211.443 21.172 213.191 21.172ZM213.191 41.481C215.307 41.481 216.878 40.7757 217.906 39.365C218.948 37.939 219.47 35.9073 219.47 33.27C219.47 30.6327 218.948 28.601 217.906 27.175C216.878 25.7337 215.307 25.013 213.191 25.013C211.044 25.013 209.449 25.7337 208.407 27.175C207.364 28.601 206.843 30.6327 206.843 33.27C206.843 35.9073 207.364 37.939 208.407 39.365C209.449 40.7757 211.044 41.481 213.191 41.481ZM237.779 45.368C235.832 45.368 234.329 44.8237 233.271 43.735C232.228 42.631 231.707 41.0823 231.707 39.089V25.427H229.131C228.855 25.427 228.617 25.3427 228.418 25.174C228.219 24.99 228.119 24.7217 228.119 24.369V22.368L231.914 21.816L232.995 15.031C233.072 14.7703 233.202 14.5633 233.386 14.41C233.57 14.2413 233.815 14.157 234.122 14.157H236.652V21.862H243.161V25.427H236.652V38.744C236.652 39.5873 236.859 40.2313 237.273 40.676C237.687 41.1207 238.239 41.343 238.929 41.343C239.312 41.343 239.642 41.297 239.918 41.205C240.194 41.0977 240.432 40.9903 240.631 40.883C240.83 40.7603 240.999 40.653 241.137 40.561C241.29 40.4537 241.436 40.4 241.574 40.4C241.85 40.4 242.072 40.5533 242.241 40.86L243.713 43.275C242.946 43.9497 242.042 44.471 240.999 44.839C239.956 45.1917 238.883 45.368 237.779 45.368ZM263.646 30.625C263.646 29.797 263.523 29.0303 263.278 28.325C263.048 27.6043 262.703 26.9833 262.243 26.462C261.783 25.9253 261.208 25.5113 260.518 25.22C259.843 24.9133 259.061 24.76 258.172 24.76C256.378 24.76 254.967 25.2737 253.94 26.301C252.913 27.3283 252.261 28.7697 251.985 30.625H263.646ZM251.847 33.661C251.908 34.995 252.115 36.1527 252.468 37.134C252.821 38.1 253.288 38.905 253.871 39.549C254.469 40.193 255.174 40.676 255.987 40.998C256.815 41.3047 257.735 41.458 258.747 41.458C259.713 41.458 260.549 41.3507 261.254 41.136C261.959 40.906 262.573 40.6607 263.094 40.4C263.615 40.124 264.06 39.8787 264.428 39.664C264.796 39.434 265.133 39.319 265.44 39.319C265.839 39.319 266.145 39.4723 266.36 39.779L267.763 41.596C267.18 42.286 266.521 42.8687 265.785 43.344C265.049 43.8193 264.267 44.2103 263.439 44.517C262.611 44.8083 261.76 45.0153 260.886 45.138C260.012 45.276 259.161 45.345 258.333 45.345C256.708 45.345 255.197 45.0767 253.802 44.54C252.422 43.988 251.218 43.183 250.191 42.125C249.179 41.067 248.382 39.756 247.799 38.192C247.232 36.628 246.948 34.8263 246.948 32.787C246.948 31.1617 247.201 29.6437 247.707 28.233C248.228 26.8223 248.964 25.5957 249.915 24.553C250.881 23.5103 252.046 22.69 253.411 22.092C254.791 21.4787 256.347 21.172 258.08 21.172C259.521 21.172 260.855 21.4097 262.082 21.885C263.309 22.345 264.367 23.0273 265.256 23.932C266.145 24.8367 266.835 25.9483 267.326 27.267C267.832 28.5703 268.085 30.0577 268.085 31.729C268.085 32.4957 268.001 33.0093 267.832 33.27C267.663 33.5307 267.357 33.661 266.912 33.661H251.847ZM288.083 25.795C287.961 26.0097 287.823 26.163 287.669 26.255C287.516 26.347 287.324 26.393 287.094 26.393C286.834 26.393 286.55 26.3163 286.243 26.163C285.937 25.9943 285.576 25.8103 285.162 25.611C284.748 25.4117 284.258 25.2353 283.69 25.082C283.138 24.9133 282.487 24.829 281.735 24.829C281.122 24.829 280.562 24.9057 280.056 25.059C279.566 25.197 279.144 25.404 278.791 25.68C278.454 25.9407 278.193 26.255 278.009 26.623C277.825 26.9757 277.733 27.359 277.733 27.773C277.733 28.325 277.902 28.785 278.239 29.153C278.577 29.521 279.021 29.843 279.573 30.119C280.125 30.3797 280.754 30.6173 281.459 30.832C282.165 31.0467 282.885 31.2767 283.621 31.522C284.357 31.7673 285.078 32.051 285.783 32.373C286.489 32.695 287.117 33.0937 287.669 33.569C288.221 34.029 288.666 34.5963 289.003 35.271C289.341 35.9303 289.509 36.7353 289.509 37.686C289.509 38.79 289.31 39.8097 288.911 40.745C288.513 41.6803 287.93 42.493 287.163 43.183C286.397 43.873 285.438 44.4097 284.288 44.793C283.154 45.1763 281.85 45.368 280.378 45.368C279.566 45.368 278.776 45.2913 278.009 45.138C277.258 45 276.537 44.8083 275.847 44.563C275.173 44.3023 274.536 43.9957 273.938 43.643C273.356 43.2903 272.834 42.907 272.374 42.493L273.524 40.607C273.662 40.377 273.831 40.2007 274.03 40.078C274.245 39.94 274.506 39.871 274.812 39.871C275.134 39.871 275.449 39.9783 275.755 40.193C276.077 40.3923 276.445 40.6147 276.859 40.86C277.289 41.1053 277.802 41.3353 278.4 41.55C278.998 41.7493 279.742 41.849 280.631 41.849C281.367 41.849 282.004 41.7647 282.54 41.596C283.077 41.412 283.522 41.1667 283.874 40.86C284.227 40.5533 284.488 40.2083 284.656 39.825C284.825 39.4263 284.909 39.0047 284.909 38.56C284.909 37.962 284.741 37.4713 284.403 37.088C284.066 36.7047 283.614 36.375 283.046 36.099C282.494 35.823 281.858 35.5777 281.137 35.363C280.432 35.1483 279.711 34.9183 278.975 34.673C278.239 34.4277 277.511 34.144 276.79 33.822C276.085 33.5 275.449 33.0937 274.881 32.603C274.329 32.097 273.885 31.4913 273.547 30.786C273.21 30.0653 273.041 29.1913 273.041 28.164C273.041 27.2287 273.225 26.3393 273.593 25.496C273.977 24.6527 274.529 23.909 275.249 23.265C275.985 22.621 276.882 22.115 277.94 21.747C279.014 21.3637 280.248 21.172 281.643 21.172C283.223 21.172 284.656 21.425 285.944 21.931C287.232 22.437 288.313 23.127 289.187 24.001L288.083 25.795Z" fill="#65758C"/>
</svg>
